<?xml version="1.0" encoding="utf-8" ?>
<svg xmlns="http://www.w3.org/2000/svg" xmlns:xlink="http://www.w3.org/1999/xlink" width="1070" height="201">
	<path fill="#FEFEFE" fill-opacity="0.97254902" transform="matrix(2.87634 0 0 2.87143 0 -3.05176e-05)" d="M314.147 49.998C314.834 46.5666 312.973 39.0594 314.223 35.7813C314.803 37.344 314.898 48.3887 314.294 49.731C314.252 49.8243 314.203 49.9121 314.147 49.998Z"/>
	<path fill="#DE0625" transform="matrix(2.87634 0 0 2.87143 0 -3.05176e-05)" d="M32.6746 29.2872C34.344 29.226 36.4015 28.9555 38.0388 29.2753C38.4055 29.3469 38.8779 29.4501 39.0912 29.7671C40.2883 31.5458 40.0805 36.4482 39.6804 38.52C39.1366 38.9467 38.2249 38.8901 37.5359 38.9667L30.2624 38.9412C30.2538 36.9818 29.9325 34.8603 30.2232 32.928C30.4999 31.089 31.2105 30.3692 32.6746 29.2872Z"/>
	<path fill="#FEFEFE" transform="matrix(2.87634 0 0 2.87143 0 -3.05176e-05)" d="M175.209 22.8744C175.608 22.8651 176.157 22.7717 176.504 22.9661C177.029 23.2605 177.33 23.9607 177.483 24.5212C177.783 25.6258 177.738 27.8139 177.165 28.8109C179.171 28.7579 182.001 28.488 183.814 29.4993C184.349 29.7975 184.451 29.985 184.605 30.5403C184.521 30.7388 184.411 30.9357 184.257 31.088C182.736 32.5861 179.08 32.2525 177.107 32.2019C178.887 36.3633 175.748 47.7217 178.69 50.9021C180.49 52.848 182.408 49.5105 184.481 49.5894L184.702 50.0673C184.565 51.3118 184.478 52.2351 183.509 53.1254C183.522 53.3988 183.402 53.6655 183.247 53.8852C182.491 54.9498 180.855 55.7895 179.587 56.0097C177.799 56.3201 175.619 56.1083 174.108 55.0348C169.415 51.7009 172.254 38.2817 171.349 32.8288C170.263 32.3938 169.121 32.0154 168.277 31.1722C168.197 30.9828 167.992 30.6477 168.063 30.4627C168.566 29.1516 170.289 28.9489 171.43 28.4484C172.977 27.1474 173.923 24.5413 175.209 22.8744Z"/>
	<path fill="#FEFEFE" transform="matrix(2.87634 0 0 2.87143 0 -3.05176e-05)" d="M254.615 28.3749C256.235 28.1943 257.636 28.2183 258.992 29.2221C260.189 30.1083 261.102 31.393 261.319 32.8909C261.496 34.1164 261.124 35.3121 260.39 36.2937C259.772 37.1197 259 37.9373 257.933 38.0838C256.045 38.3428 255.245 34.0286 253.96 33.0568C253.755 33.014 253.413 32.8929 253.22 32.9548C247.104 34.9187 251.317 48.2145 249.413 51.9646C250.656 52.1072 252.317 52.3141 253.363 53.0455C253.867 53.3979 254.024 53.549 254.129 54.1439C254.061 54.2833 253.977 54.4116 253.87 54.5234C252.776 55.6611 250.138 55.4551 248.687 55.4823C246.514 55.5338 244.064 55.7081 241.933 55.268C241.19 55.1144 240.739 54.898 240.322 54.2621C240.695 52.6269 241.894 52.9191 242.913 51.9427C242.976 51.8825 243.039 51.8231 243.099 51.7594C243.108 51.7491 243.118 51.7386 243.127 51.7282C243.927 50.2534 243.71 35.8032 243.21 33.5993C242.664 33.3643 241.693 33.4971 241.071 33.3604C240.656 33.2693 240.281 32.9949 240.059 32.6361C239.814 32.2374 239.931 32.0459 240.03 31.6142C241.161 30.3178 243.09 29.7683 244.702 29.3064C245.878 28.9695 247.75 28.2512 248.872 28.8727C249.523 29.5754 249.469 30.5928 249.549 31.5027C250.114 31.4274 252.761 28.9387 254.615 28.3749Z"/>
	<path fill="#FEFEFE" transform="matrix(2.87634 0 0 2.87143 0 -3.05176e-05)" d="M154.56 28.3747C155.791 28.2867 157.026 28.2499 158.224 28.5976C159.566 28.9867 160.618 29.7636 161.288 30.9945C161.928 32.1686 162.351 33.4774 162.655 34.7769C163.224 37.2029 165.355 50.1948 164.889 51.7874C165.801 52.1038 166.913 52.5297 167.641 53.1773C168.053 53.5436 168.115 53.731 168.145 54.2524C168.008 54.4722 167.834 54.6654 167.61 54.7983C165.533 56.0284 159.779 55.835 157.471 55.2731C156.787 55.1067 156.17 54.8972 155.784 54.2649C155.961 52.5775 157.379 52.7486 158.438 51.7782L158.472 51.7462C158.503 51.6845 158.532 51.6241 158.555 51.559C159.148 49.8884 156.664 36.3941 155.843 34.6571C155.456 33.8397 154.996 33.0041 154.1 32.6847C151.812 32.4684 149.489 34.2083 147.789 35.5676C147.983 36.3861 147.895 50.8412 147.651 51.9039C148.327 52.1443 149.217 52.5205 149.787 52.949C150.291 53.328 150.382 53.5876 150.467 54.1751C150.362 54.3664 150.228 54.5496 150.055 54.6846C148.338 56.02 143.226 55.672 141.116 55.4536C139.979 55.3359 139.04 55.1552 138.299 54.2477C138.554 52.686 140.056 52.652 141.107 51.7437L141.139 51.7156C141.945 50.2408 141.715 35.9806 141.187 33.6524C140.149 33.363 139.106 33.6203 138.218 32.9039C137.907 32.3623 137.865 32.3128 138.002 31.7058C138.824 30.5944 140.375 30.0761 141.639 29.6396C142.973 29.1787 145.519 28.1795 146.833 28.8176C147.592 29.4285 147.736 30.5015 148.006 31.3961C149.635 31.084 152.031 29.0115 154.56 28.3747Z"/>
	<path fill="#FEFEFE" transform="matrix(2.87634 0 0 2.87143 0 -3.05176e-05)" d="M123.563 28.3747L123.613 28.3718C127.03 28.181 130.23 28.5819 132.875 30.97C134.775 32.6847 136.023 35.3175 136.146 37.8756C136.2 38.9898 136.002 40.1174 135.214 40.9597C133.592 42.6946 120.952 42.0127 117.801 42.082C119.598 44.0898 118.241 47.4924 122.493 50.3297C124.058 51.3743 126.051 51.7227 127.889 51.3486C131.079 50.6995 132.64 48.4036 134.313 45.8741C134.731 45.8351 135.158 45.8805 135.516 46.1209C135.817 46.3236 136.18 46.735 136.248 47.0977C136.493 48.3938 135.411 50.2308 134.72 51.2402Q134.398 51.7079 134.032 52.1415Q133.666 52.5752 133.258 52.9706Q132.851 53.3661 132.407 53.7194Q131.962 54.0728 131.485 54.3806Q131.008 54.6884 130.503 54.9476Q129.998 55.2069 129.47 55.4151Q128.942 55.6233 128.396 55.7784Q127.85 55.9335 127.291 56.034C124.117 56.6162 120.43 55.8854 117.773 54.0457C114.95 52.0908 113.306 48.9512 112.71 45.6223C111.978 41.5341 112.689 36.8007 115.089 33.3655C117.191 30.3576 120.056 28.9995 123.563 28.3747ZM124.25 31.6246C122.549 31.9734 121.256 32.4708 120.266 33.9705C119.244 35.5183 118.925 37.5538 117.754 38.9779L123.437 39.0625C125.228 39.0644 128.442 39.5014 129.772 38.3046C130.102 37.6128 130.044 37.0395 129.795 36.3331C129.232 34.7414 127.902 32.6837 126.335 31.9334C125.656 31.6081 124.984 31.5801 124.25 31.6246Z"/>
	<path fill="#FEFEFE" transform="matrix(2.87634 0 0 2.87143 0 -3.05176e-05)" d="M272.501 28.3749C274.679 28.2976 276.933 28.2026 279.02 28.9431C280.749 29.5567 282.13 30.6766 282.921 32.3506C283.386 33.3348 283.608 34.3997 283.706 35.479C283.871 37.3121 283.964 51.3057 283.633 52.2189C284.572 51.9342 285.815 51.2294 286.781 51.5476C287.353 51.736 287.508 51.9732 287.753 52.4781C287.708 52.8324 287.618 53.1627 287.424 53.4664C286.568 54.8095 285.063 55.7041 283.526 56.0327C280.045 56.777 280.257 54.9667 278.126 53.6028C278.113 53.5943 278.1 53.5862 278.087 53.5779C275.894 55.355 272.671 56.3289 269.865 56.1237C266.704 55.8927 264.779 54.4128 262.793 52.125C262.945 50.1184 262.25 48.6034 263.004 46.5515C263.694 44.674 265.269 43.3407 267.048 42.5216C269.829 41.2412 274.589 40.7471 277.504 41.8293C278.093 40.0717 277.939 36.6625 277.559 34.848C277.296 33.5984 276.811 32.2558 275.681 31.5387C274.845 31.0087 273.788 31.0321 272.852 31.2377C269.453 31.9837 270.744 35.2042 269.353 37.3222C268.939 37.9536 268.327 38.2877 267.596 38.4259C266.737 38.5881 265.704 38.5179 264.973 38.0097C264.372 37.5913 264.042 36.9393 263.915 36.2318C263.654 34.7822 264.136 33.1573 264.975 31.9689C266.704 29.5206 269.742 28.8597 272.501 28.3749ZM272.673 44.1249Q271.103 44.7399 269.524 45.332L269.524 45.3833C269.508 47.3441 267.972 49.4579 269.853 51.365C270.49 52.0109 272.078 52.3378 272.972 52.3139C273.07 52.3113 273.166 52.2989 273.263 52.2805C274.435 52.0793 276.645 51.6644 277.373 50.5651C277.408 50.5123 277.434 50.4534 277.456 50.3942C277.968 49.2576 278.006 45.8487 277.563 44.7072C277.5 44.5428 277.405 44.3862 277.298 44.246C275.791 44.1694 274.173 43.9646 272.673 44.1249Z"/>
	<path fill="#FEFEFE" transform="matrix(2.87634 0 0 2.87143 0 -3.05176e-05)" d="M196.547 28.3749C199.149 28.292 201.869 28.1731 204.219 29.4936C205.707 30.3292 206.725 31.6244 207.269 33.2338C208.421 36.638 207.727 43.9374 207.731 47.6897C207.732 48.7813 207.586 50.2478 207.904 51.2878C208.236 52.376 210.05 50.9554 211.418 51.6646C211.46 51.7669 211.494 51.8718 211.514 51.9808C211.645 52.6833 210.995 53.9047 210.597 54.4729C209.934 55.4195 207.972 56.017 206.858 56.2034C204.427 56.6101 203.695 54.6927 202.098 53.5639C200.018 55.2925 196.89 56.2609 194.202 56.1442C190.81 55.9969 188.961 54.4785 186.794 52.1249C187.146 50.3568 186.098 48.9502 186.831 46.9523C187.576 44.9227 189.13 43.3839 191.081 42.4876C193.863 41.2098 198.591 40.751 201.505 41.8308C202.081 39.97 201.844 37.0607 201.554 35.1268C201.394 34.0552 201.024 32.5542 200.085 31.8812C199.266 31.2938 197.661 30.8801 196.657 31.0647C194.096 31.5351 194.431 35.5646 193.227 37.3189C192.769 37.9877 192.159 38.3643 191.362 38.5055C190.538 38.6515 189.75 38.4589 189.073 37.9776C188.366 37.4754 187.948 36.6391 187.817 35.7943C187.603 34.423 188.187 33.1217 188.978 32.0375C190.829 29.5003 193.616 28.8368 196.547 28.3749ZM196.615 44.1248C194.983 44.6733 193.972 45.0382 193.175 46.6502C192.875 47.2572 192.71 47.8069 192.18 48.2694C193.664 50.1958 193.528 51.9131 196.425 52.2915C196.709 52.3286 196.981 52.3302 197.263 52.2806C198.563 52.0575 200.451 51.6979 201.347 50.5999C201.396 50.5403 201.429 50.4634 201.455 50.3921C201.968 49.2556 202.005 45.8489 201.563 44.7075C201.5 44.5433 201.405 44.3869 201.299 44.2469C199.77 44.1678 198.138 43.9639 196.615 44.1248Z"/>
	<path fill="#FEFEFE" transform="matrix(2.87634 0 0 2.87143 0 -3.05176e-05)" d="M346.097 28.375C349.029 28.2115 352.346 28.2386 354.711 30.2307C359.017 33.8572 356.783 44.636 357.292 49.9581C357.352 50.584 357.559 51.0493 358.048 51.4534C358.917 51.8414 359.959 51.5807 360.87 51.4603L361.218 52.0034C360.82 53.3621 359.782 55.0032 358.544 55.7457C355.267 57.7118 353.19 54.0556 351.356 54.0821C348.475 54.1238 346.566 57.2482 341.659 55.9902C339.017 55.3128 337.395 53.6402 336.057 51.3753C336.459 50.488 336.104 47.9757 336.468 46.6693C336.935 44.9934 338.253 43.7301 339.736 42.9005C342.701 41.2421 347.435 40.8113 350.741 41.7359C351.305 40.172 351.217 36.8339 350.971 35.1673C350.783 33.8901 350.353 32.4528 349.258 31.6614C348.522 31.1296 347.339 30.9472 346.442 31.1017C343.365 31.6315 343.844 35.8191 342.363 37.8227C342.024 38.2816 341.602 38.6564 341.017 38.7317C340.109 38.8484 339.046 38.2548 338.349 37.7116C337.692 37.1991 337.173 36.4716 337.077 35.6267C336.939 34.4132 337.655 33.1266 338.375 32.205C340.385 29.6344 342.996 28.7503 346.097 28.375ZM346.115 44.1249C344.718 44.5616 343.583 44.9447 342.862 46.3175C342.301 47.3861 342.105 48.6667 342.469 49.8311C342.716 50.6238 343.252 51.3469 343.993 51.7389C344.741 52.1339 345.932 52.4595 346.771 52.2635C347.954 52.0647 349.953 51.7482 350.718 50.6777C350.735 50.6534 350.747 50.6244 350.759 50.5977C351.178 49.2305 351.35 45.7356 350.698 44.4864C350.642 44.3787 350.579 44.2771 350.51 44.1773C349.04 44.1019 347.586 44.0176 346.115 44.1249Z"/>
	<path fill="#FEFEFE" transform="matrix(2.87634 0 0 2.87143 0 -3.05176e-05)" d="M313.42 32.4374C314.581 31.9992 315.631 30.8897 316.642 30.1624C318.59 28.7609 321.373 27.8904 323.778 28.2963C325.419 28.5734 326.788 29.5041 327.745 30.8552C328.49 31.9061 328.963 33.115 329.287 34.3548C329.895 36.6869 331.924 49.7941 331.587 51.7875C332.493 52.1206 333.611 52.5258 334.353 53.1568C334.819 53.5537 334.874 53.7355 334.925 54.3113C334.767 54.5375 334.572 54.7392 334.327 54.8712C332.137 56.0512 326.182 55.8559 323.819 55.1241C323.232 54.9424 322.775 54.7194 322.477 54.1547C322.684 52.7057 324.29 52.562 325.281 51.7015C325.373 51.4886 325.435 51.2565 325.448 51.0243C325.564 48.9457 323.885 38.8538 323.239 36.6713C322.928 35.6218 322.456 34.5162 321.736 33.6777C321.291 33.1591 320.811 32.7994 320.11 32.7518C317.895 32.6015 315.796 34.4169 314.223 35.7813C312.973 39.0594 314.834 46.5666 314.147 49.998C315.105 52.5415 317.122 52.6656 317.389 54.1265C317.306 54.3009 317.21 54.6006 317.055 54.7055C315.036 56.0652 309.2 55.709 306.846 55.2233C306.153 55.0803 305.887 54.8052 305.521 54.2388C305.746 53.0279 307.629 52.1507 308.222 50.8942C308.955 49.3407 308.653 37.4123 307.944 35.4464C307.578 34.4327 306.961 33.4708 305.947 33.0098C304.746 32.464 303.322 32.8419 302.156 33.2861C300.979 33.7345 299.451 34.4358 298.753 35.5471C297.015 38.3141 299.382 48.9639 298.051 51.8478L298.027 51.9007C298.88 52.2021 300.111 52.6383 300.711 53.3338C301.023 53.6958 300.999 53.8307 300.971 54.28C300.819 54.4783 300.634 54.6527 300.415 54.7752C298.288 55.9681 292.362 55.9075 290.017 55.2341C289.371 55.0485 289.079 54.8616 288.761 54.2795C289.188 52.4535 290.433 52.7175 291.666 51.6569C291.756 51.5164 291.832 51.371 291.891 51.2143C292.342 50.0132 292.122 34.7485 291.657 33.7289C290.947 33.4966 290.177 33.4762 289.484 33.2312C288.885 33.0194 288.704 32.6632 288.447 32.1351C288.632 31.482 288.897 31.1504 289.473 30.7702C290.833 29.8716 295.138 28.2843 296.735 28.6199C298.192 28.9262 297.953 30.5907 298.587 31.5661C301.57 30.895 302.923 28.1781 306.986 28.1669C308.888 28.1617 311.047 28.9515 312.402 30.3092C312.999 30.9076 313.423 31.5684 313.42 32.4374Z"/>
	<path fill="#DE0625" transform="matrix(2.87634 0 0 2.87143 0 -3.05176e-05)" d="M23.9977 17.2891C29.3748 17.0234 38.7478 16.9321 44.0244 17.3022C46.1714 17.4528 49.0598 17.9042 50.5425 19.6274C51.3345 20.5478 51.6407 21.8634 51.7807 23.0402C52.0965 25.6956 51.7661 28.61 51.7679 31.3013C51.7714 36.5916 52.0413 42.0092 51.6692 47.2827C50.7652 48.7057 49.6513 49.6564 48.3091 50.6386C42.3672 51.3557 36.2412 50.6574 30.2571 50.9443L30.2587 44.3055C34.4232 44.1555 38.6219 44.2665 42.7906 44.2714C43.681 43.4836 44.4676 42.6752 45.2301 41.7629C45.2736 38.2353 46.131 27.8662 44.1563 25.329C43.6192 24.639 42.997 24.6986 42.2019 24.5877C39.6041 23.8317 36.6404 23.7595 33.9481 23.7561C31.6106 23.7531 28.4132 23.7566 26.6579 25.5216C25.9369 26.2466 25.2963 27.3329 25.1223 28.3475C24.434 32.3609 24.9083 37.1707 24.9086 41.2813L24.9605 68.9452C22.7554 69.0596 20.5027 68.9746 18.2921 68.9833C17.7992 63.5256 18.2364 55.6164 18.2411 49.8905C18.248 41.5921 17.8631 33.1409 18.2469 24.8629C18.2971 23.7786 18.3808 22.6836 18.8203 21.6765C19.8135 19.4007 21.7655 18.1604 23.9977 17.2891Z"/>
	<path fill="#FEFEFE" transform="matrix(2.87634 0 0 2.87143 0 -3.05176e-05)" d="M84.2973 13.1246C87.9267 12.8499 91.7442 12.9234 95.3811 13.0968C100.64 13.3476 105.532 14.2265 109.251 18.3321C111.786 21.1314 113.359 24.9867 113.168 28.7904C113.012 31.9213 111.679 35.1392 109.333 37.2583C104.85 41.3083 97.888 40.6548 92.3186 40.3736Q92.519 40.8428 92.6172 41.3435C92.8862 42.7328 93.088 45.9249 92.3 47.1006Q92.4222 47.2753 92.5032 47.4726C92.9771 48.61 92.8542 50.1676 92.397 51.2841C93.1268 51.4349 93.8717 51.616 94.5856 51.8327C95.5073 52.1125 97.1839 52.6405 97.6638 53.5573C97.8377 53.8894 97.7105 54.0704 97.606 54.4076C97.1249 54.9862 96.5506 55.1211 95.8442 55.2363C93.3418 55.6443 83.8598 56.103 82.0306 54.7347C81.5333 54.3628 81.4742 54.144 81.3874 53.5674C82.2843 51.8255 83.9065 52.2192 85.4283 51.3488C85.5276 51.1957 85.6099 51.0363 85.6719 50.8644C86.0969 49.6872 85.9188 21.7691 85.7207 18.3384C85.699 17.9625 85.5773 17.602 85.4218 17.2612C84.3338 16.2779 82.6334 16.972 81.5598 15.3555C81.4279 14.6398 81.4106 14.6054 81.7948 13.9891C82.618 13.4233 83.3181 13.2638 84.2973 13.1246ZM93.11 16.3745C91.7379 17.9842 93.8059 34.5915 92.3858 37.4073C95.3239 37.3235 101.01 37.5747 103.136 35.3145C103.226 35.2194 103.283 35.1385 103.317 35.0096C104.747 34.2172 105.686 32.3495 106.117 30.8284C106.944 27.9121 106.621 24.5768 105.135 21.9265C103.768 19.4889 101.78 17.9798 99.0929 17.2297C97.1417 16.6849 95.1238 16.5042 93.11 16.3745Z"/>
	<path fill="#FEFEFE" transform="matrix(2.87634 0 0 2.87143 0 -3.05176e-05)" d="M229.05 28.8953C231.44 27.2951 232.536 24.1789 236.343 24.9159C237.336 25.1082 238.331 25.5853 238.903 26.4455C239.428 27.2355 239.576 28.1848 239.38 29.1061C239.212 29.8961 238.75 30.6072 238.065 31.044C237.516 31.3941 236.911 31.566 236.268 31.4173C235.097 31.1467 234.365 29.8864 233.256 29.6465C232.891 29.5676 232.647 29.7039 232.302 29.8208C232.396 31.3188 234.342 32.8018 235.057 34.1453C236.95 37.7024 236.033 42.8681 233.443 45.8183C229.746 50.0294 224.719 49.2869 219.747 49.9778C221.19 50.7034 222.616 51.7195 224.139 52.2311C228.505 53.6965 236.231 54.021 237.95 59.1892C238.561 61.0272 238.082 63.2675 237.223 64.9521C235.05 69.2128 231.615 68.3372 229.665 70L218.15 70C217.25 68.7997 210.514 67.0716 211.202 62.4132C211.474 60.5713 213.296 58.7199 214.728 57.6707C215.543 57.0736 216.508 56.6285 217.423 56.2067C217.42 56.193 217.417 56.1794 217.414 56.1658C217.394 56.0822 217.368 56.0005 217.343 55.9183C216.757 53.9905 214.651 53.2876 215.933 50.8322C216.235 50.2547 217.68 48.8901 217.726 48.4306C214.789 45.7368 212.625 43.7815 212.437 39.4869C212.317 36.7338 213.212 34.0665 215.082 32.0268C217.327 29.5784 220.561 28.4679 223.82 28.3389C225.519 28.2716 227.419 28.4069 229.05 28.8953ZM222.432 31.3747C220.55 32.4008 219.677 33.333 219.064 35.4253C218.326 37.9466 218.72 41.0838 219.979 43.3803C220.79 44.8605 221.888 45.9026 223.532 46.3731C224.174 46.557 224.899 46.6919 225.544 46.4328C227.013 46.0719 227.946 45.4149 228.738 44.1032C229.993 42.0229 230.041 39.2824 229.462 36.9813C228.95 34.9477 227.836 32.9409 225.987 31.848C224.746 31.1146 223.814 31.1587 222.432 31.3747ZM220.329 57.8746C218.867 58.5846 217.353 59.7751 216.792 61.3714C216.56 62.0352 216.653 62.7904 216.963 63.4134C217.647 64.7885 219.171 65.6909 220.58 66.1581C222.846 66.9095 225.712 66.9275 228.053 66.4762C229.398 66.2613 231.546 65.6302 232.384 64.4617C232.675 64.0555 232.8 63.5944 232.71 63.0905C232.52 62.0258 231.461 61.0751 230.604 60.5094C228.719 59.2648 222.58 57.4128 220.416 57.8554Q220.372 57.8644 220.329 57.8746Z"/>
	<path fill="#DE0625" transform="matrix(2.87634 0 0 2.87143 0 -3.05176e-05)" d="M11.3035 0L59.1521 0C61.3353 0.765706 63.2528 2.01073 64.9308 3.59372C68.0638 6.5494 69.6547 9.76748 69.77 14.1175C69.974 21.8133 69.7752 29.5726 69.7753 37.2739C69.7754 43.6603 70.4966 53.2549 68.9563 59.2998C68.4825 61.159 67.2089 62.9517 65.9027 64.3212C64.0651 66.2479 61.8307 67.7223 59.2388 68.4004C55.1313 69.4749 50.0288 68.8855 45.7636 68.8678Q38.0154 68.8478 30.268 68.9727C30.1329 64.7609 30.2429 60.5188 30.2532 56.3038C34.6765 56.1834 39.1169 56.2821 43.542 56.3095C45.7151 56.323 48.0664 56.5303 50.2094 56.1874C51.5819 55.9678 52.9789 55.5137 54.0272 54.5685C56.1317 52.671 57.0965 50.8219 57.2299 48.0437C57.5163 42.0787 57.2761 35.9887 57.2692 30.0117C57.2653 26.5944 57.6817 22.5594 57.107 19.2301C56.8506 17.7448 56.1831 16.2753 55.1602 15.1597C52.9643 12.7648 48.3236 12.071 45.2086 11.9319C39.8624 11.6931 23.8109 11.2834 19.2834 12.718C18.204 13.06 17.3522 13.7552 16.53 14.5108C15.1708 15.7598 13.9598 17.1634 13.5003 18.9833C12.3062 23.7134 12.927 30.203 12.9266 35.1444C12.9256 46.454 13.2658 57.8686 12.7945 69.1642C8.34875 67.1847 4.5569 65.6425 2.2722 60.9115C1.47169 59.2538 0.806636 57.3632 0.624889 55.5302C0.408757 53.3505 0.596673 51.0286 0.62128 48.8365L0.649787 37.9667L0.62544 22.8975C0.604263 19.9953 0.433716 17.0184 0.597397 14.1223C0.68595 12.5555 0.995001 10.939 1.51698 9.45578C3.2726 4.46713 6.78457 2.15711 11.3035 0Z"/>
</svg>
