<?xml version="1.0" encoding="utf-8"?>
<!-- Generator: Adobe Illustrator 26.5.0, SVG Export Plug-In . SVG Version: 6.00 Build 0)  -->
<svg version="1.1" id="Layer_1" xmlns="http://www.w3.org/2000/svg" xmlns:xlink="http://www.w3.org/1999/xlink" x="0px" y="0px"
	 viewBox="0 0 200 67" style="enable-background:new 0 0 200 67;" xml:space="preserve">
<style type="text/css">
	.st0{fill:#FFFDFF;}
	.st1{fill:#84B2FF;}
</style>
<g>
	<g>
		<path class="st0" d="M184.2,53.1c-2.2,0-4.3-0.8-6.1-2.2l-1.3-1.1L200,39.4c-0.5-1.9-1.4-3.7-2.6-5.3c-3.1-4.3-7.9-6.7-13.2-6.7
			c-9.1,0-16.4,7.3-16.4,16.4v1.5l-1.4-0.4c-1.6-0.5-3.5-0.5-5.1-0.2c-0.7,0.1-1.3,0.3-2,0.6c-0.6,0.3-1.2,0.6-1.8,1
			c-0.6,0.4-1.1,0.8-1.7,1.3c-0.3,0.3-0.7,0.6-1,1c-0.2,0.2-0.3,0.3-0.5,0.5l0,0c0,0-0.1,0.1-0.1,0.1c-0.1,0.1-0.3,0.3-0.4,0.4
			c-0.1,0.1-0.1,0.2-0.2,0.2c-0.1,0.1-0.1,0.1-0.2,0.2c-0.1,0.1-0.1,0.2-0.2,0.2c-0.6,0.6-1.2,1.1-1.9,1.5c-0.3,0.2-0.5,0.3-0.8,0.5
			c-0.7,0.4-1.5,0.6-2.3,0.8c-0.6,0.1-1.2,0.2-1.8,0.2c-2.2,0-4.3-0.8-6.1-2.2l-1.3-1.1l23.2-10.4c-0.5-1.9-1.4-3.7-2.6-5.3
			c-3.1-4.3-7.9-6.7-13.2-6.7c-9.1,0-16.4,7.3-16.4,16.4c0,0.8,0.1,1.7,0.2,2.5l0.2,1l-1,0.2c-1.2,0.2-2.4,0.4-3.6,0.4l-1.2,0
			l0.2-1.2c0.1-0.6,0.1-1.1,0.1-1.6c0-5.5-4-10.1-12.8-14.8l-0.5-0.3c-3.5-1.8-9.5-4.9-9.5-9.8c0-0.8,0.2-1.6,0.5-2.3
			c0.9-2.3,3-3.7,5.9-3.7c1.5,0,3,0.3,4.4,1c1.9,0.8,3.8,1.8,5.3,2.7c0.1,0.1,0.3,0.2,0.5,0.3l5.1-6.2c-3-2.2-8.2-5.2-14.4-5.2
			c-0.9,0-1.8,0.1-2.8,0.2c-4,0.6-7.3,2.5-9.7,5.7c-2,2.6-3.1,5.4-3.1,8.3c0,1.2,0.1,2.3,0.4,3.1l0.1,0.2c0,0.1,0.1,0.3,0.1,0.5
			c0.1,0.2,0.1,0.3,0.1,0.5c1.2,3.1,3.9,6,7.8,8.5c0.7,0.4,1.8,1,2.9,1.6l0.1,0c4.1,2.1,9.1,4.8,10.8,8.3l1.2,2.5l-2.6-1.1
			c-2.1-0.9-4.1-1.9-6-2.8c-6-3-11.3-5.6-15.7-3.5c-4.1,2-6,7.2-4.1,11.4l0,0c0.8,2,2.3,3.7,4.7,5.3c1.4,0.9,2.9,1.7,4.4,2.4
			l0.4,0.1c3.4,1.2,6.9,1.7,10.7,1.7c5.3,0,9.4-1.9,12.3-5.6l0.4-0.5l0.6,0.1c0.5,0.1,1,0.1,1.4,0.1c2.8,0.2,5.7-0.1,8.4-0.8L133,53
			l0.4,0.6c3.4,4.5,8.9,7,14.5,6.6c0.4,0,0.9-0.1,1.3-0.2c0.4-0.1,0.8-0.2,1.2-0.3c0.4-0.1,0.8-0.2,1.2-0.3c0.4-0.1,0.8-0.3,1.2-0.4
			c0.4-0.2,0.8-0.3,1.1-0.5c0.4-0.2,0.7-0.4,1.1-0.6c0.4-0.2,0.7-0.4,1-0.7c0.3-0.2,0.7-0.5,1-0.8c0.3-0.3,0.6-0.5,0.9-0.8
			c0.3-0.3,0.6-0.6,0.9-0.9c0.2-0.3,0.4-0.5,0.7-0.8c0.2-0.3,0.4-0.5,0.6-0.8c0.4-0.4,0.8-0.8,1.2-1.2c0.4-0.4,1-0.7,1.6-1l0,0
			c0.5-0.2,1.1-0.4,1.6-0.5c0.2,0,0.4,0,0.6,0c0.4,0,0.8,0.1,1.3,0.2l0.1,0c0.9,0.2,1.7,0.4,2.5,0.5l0.5,0.1l0.3,0.5
			c2.9,5.4,8.4,8.7,14.5,8.7c5.1,0,9.9-2.4,13-6.5c-1.9-1.1-4.2-2.4-6.2-3.5C189.3,52,186.8,53.1,184.2,53.1z M110.3,52.5
			c-0.4,0.1-0.9,0.2-1.5,0.2c-0.1,0-0.2,0-0.3,0c-0.6,0-1.1-0.1-1.6-0.2l-0.3,0c-1.3-0.2-2.7-0.5-4.2-1c-1.6-0.6-3.5-1.3-5.4-2.3
			c-0.3-0.2-0.6-0.4-0.8-0.6c-0.6-0.6-0.9-1.2-0.9-2c0-0.2,0-0.5,0.1-0.8c0.2-0.5,0.8-0.9,1.4-0.9c1-0.1,2,0.2,2.8,0.5l0.2,0.1
			c1.6,0.5,3.3,1.2,5.3,2.1c0.3,0.1,0.6,0.3,0.9,0.4c1.4,0.6,2.8,1.3,4.1,2.1c0,0,0.1,0,0.1,0.1c0.3,0.2,1,0.6,0.9,1.4
			C111.2,51.7,111,52.3,110.3,52.5z M153.9,37.7L153.9,37.7L153.9,37.7L153.9,37.7z M146.6,34.3c2.2,0,4.4,0.8,6.1,2.3l0.6,0.5
			l-16,7.2l0-0.7C137.2,38.4,141.5,34.3,146.6,34.3z M184.2,34.3c2.2,0,4.4,0.8,6.1,2.3l0.6,0.5l-16.1,7.3l0-1
			C174.9,38.4,179.1,34.3,184.2,34.3z"/>
		<path class="st0" d="M76.4,34.4v11.9c0,0.2,0,0.5,0,0.7v5.3c0,0.7-0.3,1.3-0.9,1.7c-0.3,0.2-0.7,0.3-1.1,0.3h-0.2v5.5h5.5
			c1.7,0,3.1-1.4,3.1-3.1V45c0-0.1,0-0.1,0-0.2c0-0.2,0-0.5,0-0.7v-5.3c0-1.1,0.9-2,2-2H85v-5.5h-5.5C77.8,31.3,76.4,32.7,76.4,34.4
			z"/>
		<ellipse class="st0" cx="80.7" cy="24.1" rx="4.3" ry="4.3"/>
	</g>
	<g>
		<path class="st1" d="M33,0.6c-18.2,0-33,14.8-33,33c0,18.1,14.8,32.9,33,32.9s33-14.7,33-32.9C65.9,15.4,51.1,0.6,33,0.6z
			 M33,59.7C18.5,59.7,6.7,48,6.7,33.6C6.7,19.1,18.5,7.3,33,7.3c14.4,0,26.1,11.8,26.1,26.2C59.1,48,47.4,59.7,33,59.7z"/>
		<path class="st1" d="M48.8,21.9c-3.8-5.2-9.7-8.2-16.1-8.2c-11,0-20,8.9-20,19.9c0,11,9,20,20,20c5.8,0,11.2-2.5,15-6.9
			c-0.4-0.2-0.8-0.4-1.2-0.7c0,0,0,0,0,0l-4.9-2.8c-2.3,2.2-5.5,3.5-8.9,3.5c-4.6,0-8.6-2.4-11-5.9l3.8-1.7c1.7,2.2,4.3,3.6,7.2,3.6
			c5,0,9.1-4.1,9.1-9.1c0-0.6-0.1-1.1-0.2-1.7l2.4-1.1l1.4-0.6l5.1-2.3l1.2-0.5C51,25.4,50.1,23.6,48.8,21.9z M33.6,32.4
			c-1.3,0-2.4-1.1-2.4-2.4s1.1-2.4,2.4-2.4s2.4,1.1,2.4,2.4S34.9,32.4,33.6,32.4z M36.8,25.4c-1.2-0.6-2.7-1-4.1-1
			c-4.3,0-7.9,2.9-8.8,6.9l-4.3,2c0.1-7.1,6-12.9,13.1-12.9c3.2,0,6.2,1.2,8.4,3.1L36.8,25.4z"/>
	</g>
</g>
</svg>
